<svg xmlns="http://www.w3.org/2000/svg" viewBox="0 0 64 64" role="img" aria-labelledby="title">
  <title id="title">Due for erdetkriginorge.no</title>
  <rect width="64" height="64" rx="14" fill="#f7f4ec"/>
  <path
    fill="#0b6b4f"
    d="M5.5 34.5c5.7-7.5 15-8.6 23.5-2.8 3.7-6.4 4.6-14.9 6.4-23.1.8-3.8 4.6-4.4 6.5-.9 6.1 11.2 12.7 23.8 9.1 35.8-1.8 6.1-6.5 10.7-12 14.3 5.1 3 11.4 3.4 17.7.9-2.4 5.5-10.2 7.2-18.1 4.2-6.3-2.4-10.3-7.2-10.4-12.1-4.2-3.2-10-2.4-15.8-8.7-2.9-3.2-4.5-6.5-6.9-7.6Z"
  />
  <circle cx="17.2" cy="33.4" r="2" fill="#f7f4ec"/>
</svg>
