<svg xmlns="http://www.w3.org/2000/svg" viewBox="0 0 64 64" role="img" aria-labelledby="title">
  <title id="title">Fredsfugl for erdetkriginorge.no</title>
  <rect width="64" height="64" rx="14" fill="#f7f4ec"/>
  <path
    fill="#0b6b4f"
    d="M13.5 36.4c7.8-.7 13.3-4.9 18.4-14.2 1.2 7.3 5.8 12.5 15.1 15.5-7.8 1.7-15.2.5-21.9-3.7-2.6 5.2-6.7 9.7-12.2 13.4.2-4.6 1.8-8.3 5-11.2-1.4.3-2.9.3-4.4.2Z"
  />
  <circle cx="44.5" cy="28.2" r="1.7" fill="#f7f4ec"/>
  <path
    fill="none"
    stroke="#0b6b4f"
    stroke-linecap="round"
    stroke-linejoin="round"
    stroke-width="3"
    d="M47.5 28.5c4.5-2.2 7.2-4.6 8.4-7.3M53.2 24.3l3.7 2.2M53.4 24.2l-.4-4.1"
  />
</svg>
