<svg xmlns="http://www.w3.org/2000/svg" viewBox="0 0 128 128" role="img" aria-labelledby="title">
  <title id="title">Due for erdetkriginorge.no</title>
  <rect width="128" height="128" rx="26" fill="#f7f4ec"/>
  <!-- The smaller raised wing is separated from the body to stay legible at favicon size. -->
  <path
    fill="#0b6b4f"
    d="M39.8 63.2c2.4-6.8 2-13.8.4-21.3l-6.1-27.1c-.7-3.2 1.7-4.4 4.1-2.3l21.3 17.8c2.3 2 3 4.7 1.8 7.5-5.8 9.6-13.1 18.2-21.5 25.4Z"
  />
  <path
    fill="#0b6b4f"
    d="M10.4 68.1c6.7-7.8 13.3-11.5 20.1-10.5 4.1.6 7.4 2.6 10.1 5.7 8.9-7.6 16.4-15 20.8-23.7 4.3-8.5 5.4-20.9 8.1-32.5.8-3.6 4.6-4.2 6.5-.9 8.1 14 14.5 29.1 14 42.1-.4 12.1-6.2 20.9-14.4 28.4l-10.3 9.4c-2.5 2.3-2.3 5 .1 7.7 6.8 7.7 14.1 12.2 20.8 12.4l10.2-.2c5.8-.1 9.3 5.8 11.8 13 1.8 5.3-.5 8.3-5.7 8.7-11.8.8-21.2-4.9-26-14-7-5.4-14.7-8.5-24.1-10.8-14.2-3.5-23.3-12.8-28.9-25.9-3.7-8.7-7.6-10.7-13.1-8.9Z"
  />
  <circle cx="28.6" cy="64.3" r="4.1" fill="#191919"/>
</svg>
